# xmcd CD database file
#
# Track frame offsets:
#	150
#	4019
#	17965
#	29802
#	43344
#	61201
#	75589
#	94240
#	109713
#	124036
#	143070
#	162800
#	174745
#	191524
#
# Disc length: 2701 seconds
#
# Revision: 0
# Processed by: cddbd v1.5PL3 Copyright (c) Steve Scherf et al.
# Submitted via: CDex 1.50
#
DISCID=b90a8b0e
DTITLE=Unnerhaus Jazzband - Jazz is guud
DYEAR=2002
DGENRE=Jazz
TTITLE0=Uff die Seit´
TTITLE1=Jazz is guud
TTITLE2=Ich steh´ net uff
TTITLE3=Bei mir bischd Du schää
TTITLE4=Mei Paradies is heit
TTITLE5=Das gebt guuder Wein
TTITLE6=Schdell der vor, Du kännschd die Zeit zurückdreh´
TTITLE7=Wann de blos werre do wärschd
TTITLE8=Alles fer die Katz
TTITLE9=Ja, do gebts a schäänes Feschd
TTITLE10=Mich in Dir verliere
TTITLE11=Uff die Seit´, jetzt kommt die Jazzband
TTITLE12=Pass uff, mei Knechd
TTITLE13=Tschüss, machs guud
EXTD=YEAR: 2002
EXTT0=
EXTT1=
EXTT2=
EXTT3=
EXTT4=
EXTT5=
EXTT6=
EXTT7=
EXTT8=
EXTT9=
EXTT10=
EXTT11=
EXTT12=
EXTT13=
PLAYORDER=
